<svg width="1582" height="263" viewBox="0 0 1582 263" fill="none" xmlns="http://www.w3.org/2000/svg">
<rect width="1582" height="263" fill="white"/>
<path d="M72 206.4C61.7333 206.4 53.1333 204.8 46.2 201.6C39.2667 198.267 33.9333 193.933 30.2 188.6C26.6 183.133 24.4667 177.067 23.8 170.4L50.6 169.2C51.8 173.6 54.0667 177.133 57.4 179.8C60.7333 182.333 65.6667 183.6 72.2 183.6C78.4667 183.6 83.0667 182.867 86 181.4C88.9333 179.933 90.4 177.733 90.4 174.8C90.4 172.667 89.8667 171 88.8 169.8C87.7333 168.467 85.7333 167.267 82.8 166.2C79.8667 165 75.4667 163.867 69.6 162.8C58.8 160.533 50.2 158 43.8 155.2C37.5333 152.267 33 148.667 30.2 144.4C27.5333 140 26.2 134.533 26.2 128C26.2 121.867 27.8 116.267 31 111.2C34.2 106.133 39.0667 102.067 45.6 99C52.1333 95.9333 60.3333 94.4 70.2 94.4C80.8667 94.4 89.4667 96.1333 96 99.6C102.667 103.067 107.667 107.533 111 113C114.333 118.467 116.467 124.267 117.4 130.4L90.4 131.6C89.8667 128.667 88.7333 126.133 87 124C85.2667 121.867 83 120.2 80.2 119C77.4 117.8 74.0667 117.2 70.2 117.2C64.4667 117.2 60.3333 118.333 57.8 120.6C55.2667 122.733 54 125.2 54 128C54 130.533 54.6667 132.6 56 134.2C57.3333 135.8 59.7333 137.2 63.2 138.4C66.8 139.6 71.8 140.867 78.2 142.2C88.6 144.2 96.6667 146.6 102.4 149.4C108.133 152.067 112.2 155.4 114.6 159.4C117 163.267 118.2 168.2 118.2 174.2C118.2 180.867 116.333 186.6 112.6 191.4C109 196.2 103.733 199.933 96.8 202.6C90 205.133 81.7333 206.4 72 206.4ZM190.922 206.4C180.789 206.4 171.922 204.133 164.322 199.6C156.722 194.933 150.789 188.4 146.522 180C142.255 171.6 140.122 161.733 140.122 150.4C140.122 138.933 142.255 129.067 146.522 120.8C150.789 112.4 156.722 105.933 164.322 101.4C171.922 96.7333 180.789 94.4 190.922 94.4C201.055 94.4 209.922 96.7333 217.522 101.4C225.122 105.933 231.055 112.4 235.322 120.8C239.589 129.067 241.722 138.933 241.722 150.4C241.722 161.733 239.589 171.6 235.322 180C231.055 188.4 225.122 194.933 217.522 199.6C209.922 204.133 201.055 206.4 190.922 206.4ZM190.922 182.4C198.122 182.4 203.655 179.667 207.522 174.2C211.522 168.6 213.522 160.667 213.522 150.4C213.522 140 211.522 132.067 207.522 126.6C203.655 121.133 198.122 118.4 190.922 118.4C183.722 118.4 178.122 121.133 174.122 126.6C170.255 132.067 168.322 140 168.322 150.4C168.322 160.667 170.255 168.6 174.122 174.2C178.122 179.667 183.722 182.4 190.922 182.4ZM376.366 204V96.8H398.566L399.366 121.4L397.166 120.8C398.766 112 401.432 105.4 405.166 101C409.032 96.6 413.832 94.4 419.566 94.4C426.232 94.4 431.032 96.6667 433.966 101.2C437.032 105.6 439.099 112.4 440.166 121.6H437.166C438.632 112.667 441.566 105.933 445.966 101.4C450.366 96.7333 455.766 94.4 462.166 94.4C470.032 94.4 475.832 97.2667 479.566 103C483.299 108.6 485.166 117.467 485.166 129.6V204H459.766V135C459.766 128.067 459.099 123.4 457.766 121C456.566 118.6 454.632 117.4 451.966 117.4C450.099 117.4 448.432 118 446.966 119.2C445.632 120.4 444.566 122.333 443.766 125C442.966 127.533 442.566 130.933 442.566 135.2V204H418.966V135C418.966 128.333 418.366 123.733 417.166 121.2C415.966 118.667 413.966 117.4 411.166 117.4C409.299 117.4 407.632 118 406.166 119.2C404.699 120.4 403.566 122.333 402.766 125C402.099 127.533 401.766 130.933 401.766 135.2V204H376.366ZM535.488 206.4C528.954 206.4 522.954 205.2 517.488 202.8C512.021 200.4 507.688 196.933 504.488 192.4C501.421 187.867 499.888 182.467 499.888 176.2C499.888 167.133 502.754 160.067 508.488 155C514.354 149.933 522.354 146.333 532.488 144.2L564.688 137.2C564.688 130.4 563.288 125.2 560.488 121.6C557.821 118 553.421 116.2 547.288 116.2C541.954 116.2 537.821 117.533 534.888 120.2C531.954 122.867 530.021 126.4 529.088 130.8L501.088 129.2C503.088 118.667 508.088 110.267 516.088 104C524.221 97.6 534.488 94.4 546.888 94.4C562.354 94.4 573.688 98.3333 580.888 106.2C588.221 113.933 591.888 124.8 591.888 138.8V176.6C591.888 179.267 592.354 181.133 593.288 182.2C594.221 183.133 595.621 183.6 597.488 183.6H601.888V204C601.088 204.133 599.754 204.267 597.888 204.4C596.021 204.667 594.088 204.8 592.088 204.8C586.754 204.8 582.221 203.867 578.488 202C574.754 200.133 571.888 197.4 569.888 193.8C568.021 190.2 566.954 185.867 566.688 180.8H569.688C569.021 185.6 567.221 190 564.288 194C561.354 197.867 557.421 200.933 552.488 203.2C547.554 205.333 541.888 206.4 535.488 206.4ZM541.088 186C546.154 186 550.421 185.133 553.888 183.4C557.354 181.533 560.021 178.867 561.888 175.4C563.754 171.8 564.688 167.6 564.688 162.8V156.4L540.888 161.6C536.088 162.667 532.688 164.2 530.688 166.2C528.688 168.2 527.688 171.067 527.688 174.8C527.688 178.267 528.821 181 531.088 183C533.354 185 536.688 186 541.088 186ZM625.009 204V96.8H649.809L650.609 126L647.809 124.8C649.143 117.867 651.409 112.133 654.609 107.6C657.943 103.067 662.009 99.7333 666.809 97.6C671.609 95.4667 676.943 94.4 682.809 94.4C690.543 94.4 696.809 96.1333 701.609 99.6C706.543 103.067 710.209 107.8 712.609 113.8C715.009 119.8 716.209 126.733 716.209 134.6V204H689.009V140.8C689.009 132.667 687.609 126.733 684.809 123C682.143 119.267 678.076 117.4 672.609 117.4C668.876 117.4 665.476 118.333 662.409 120.2C659.343 122.067 656.876 124.8 655.009 128.4C653.143 132 652.209 136.533 652.209 142V204H625.009ZM753.531 234V212.4H768.131C771.598 212.4 774.265 211.867 776.131 210.8C778.131 209.867 779.598 208 780.531 205.2L783.331 197.2H774.931L737.331 96.8H765.531L791.731 171.2L815.931 96.8H844.131L802.931 213.4C800.398 220.867 796.465 226.133 791.131 229.2C785.931 232.4 779.198 234 770.931 234H753.531ZM1032.18 206.4C1022.04 206.4 1013.04 204.067 1005.18 199.4C997.442 194.733 991.375 188.2 986.975 179.8C982.708 171.267 980.575 161.467 980.575 150.4C980.575 139.333 982.708 129.6 986.975 121.2C991.375 112.8 997.442 106.267 1005.18 101.6C1013.04 96.8 1022.04 94.4 1032.18 94.4C1040.58 94.4 1048.24 96.0667 1055.18 99.4C1062.11 102.733 1067.78 107.467 1072.18 113.6C1076.71 119.733 1079.58 127.067 1080.78 135.6L1053.78 137C1052.44 131 1049.91 126.4 1046.18 123.2C1042.44 120 1037.84 118.4 1032.38 118.4C1025.04 118.4 1019.24 121.267 1014.98 127C1010.84 132.6 1008.78 140.4 1008.78 150.4C1008.78 160.4 1010.84 168.267 1014.98 174C1019.24 179.6 1025.04 182.4 1032.38 182.4C1037.98 182.4 1042.64 180.733 1046.38 177.4C1050.24 174.067 1052.78 169.2 1053.98 162.8L1080.98 164.2C1079.91 172.6 1077.11 180 1072.58 186.4C1068.04 192.667 1062.31 197.6 1055.38 201.2C1048.44 204.667 1040.71 206.4 1032.18 206.4ZM1137.7 206.4C1127.7 206.4 1119.76 203.067 1113.9 196.4C1108.03 189.6 1105.1 179.8 1105.1 167V96.8H1132.3V160.2C1132.3 168.467 1133.63 174.4 1136.3 178C1139.1 181.6 1143.1 183.4 1148.3 183.4C1153.76 183.4 1158.36 181.333 1162.1 177.2C1165.96 173.067 1167.9 167 1167.9 159V96.8H1194.9V204H1169.9L1169.3 173.2L1172.5 174C1171.03 184.267 1167.23 192.267 1161.1 198C1155.1 203.6 1147.3 206.4 1137.7 206.4ZM1259.42 204V96C1259.42 91.8667 1258.35 88.8 1256.22 86.8C1254.09 84.6667 1251.02 83.6 1247.02 83.6H1223.82V62H1251.82C1263.42 62 1272.09 64.9333 1277.82 70.8C1283.69 76.5333 1286.62 85.1333 1286.62 96.6V204H1259.42ZM1219.82 204V182.4H1320.62V204H1219.82ZM1404.74 204C1392.74 204 1383.87 201.267 1378.14 195.8C1372.54 190.333 1369.74 181.867 1369.74 170.4V71.6H1396.94V167.8C1396.94 172.733 1398.07 176.4 1400.34 178.8C1402.74 181.2 1406.41 182.4 1411.34 182.4H1436.54V204H1404.74ZM1338.94 118.4V96.8H1436.54V118.4H1338.94ZM1511.06 206.4C1500.8 206.4 1492.2 204.8 1485.26 201.6C1478.33 198.267 1473 193.933 1469.26 188.6C1465.66 183.133 1463.53 177.067 1462.86 170.4L1489.66 169.2C1490.86 173.6 1493.13 177.133 1496.46 179.8C1499.8 182.333 1504.73 183.6 1511.26 183.6C1517.53 183.6 1522.13 182.867 1525.06 181.4C1528 179.933 1529.46 177.733 1529.46 174.8C1529.46 172.667 1528.93 171 1527.86 169.8C1526.8 168.467 1524.8 167.267 1521.86 166.2C1518.93 165 1514.53 163.867 1508.66 162.8C1497.86 160.533 1489.26 158 1482.86 155.2C1476.6 152.267 1472.06 148.667 1469.26 144.4C1466.6 140 1465.26 134.533 1465.26 128C1465.26 121.867 1466.86 116.267 1470.06 111.2C1473.26 106.133 1478.13 102.067 1484.66 99C1491.2 95.9333 1499.4 94.4 1509.26 94.4C1519.93 94.4 1528.53 96.1333 1535.06 99.6C1541.73 103.067 1546.73 107.533 1550.06 113C1553.4 118.467 1555.53 124.267 1556.46 130.4L1529.46 131.6C1528.93 128.667 1527.8 126.133 1526.06 124C1524.33 121.867 1522.06 120.2 1519.26 119C1516.46 117.8 1513.13 117.2 1509.26 117.2C1503.53 117.2 1499.4 118.333 1496.86 120.6C1494.33 122.733 1493.06 125.2 1493.06 128C1493.06 130.533 1493.73 132.6 1495.06 134.2C1496.4 135.8 1498.8 137.2 1502.26 138.4C1505.86 139.6 1510.86 140.867 1517.26 142.2C1527.66 144.2 1535.73 146.6 1541.46 149.4C1547.2 152.067 1551.26 155.4 1553.66 159.4C1556.06 163.267 1557.26 168.2 1557.26 174.2C1557.26 180.867 1555.4 186.6 1551.66 191.4C1548.06 196.2 1542.8 199.933 1535.86 202.6C1529.06 205.133 1520.8 206.4 1511.06 206.4Z" fill="black"/>
</svg>
